#!OML:ASF E:\acrobat2\Project_11_07_03\Capture day 1\Session 1\Acrobat.ASF
:FULLY-SPECIFIED
:DEGREES
33
root 7.74093 18.0252 -13.7488 3.67897 0.282175 -3.26316
lowerback -1.39467 -3.71406 -0.0741043
upperback 1.47616 -5.02772 3.12811
thorax 2.58684 -2.54625 3.06632
lowerneck 6.92716 -11.6724 -5.67155
upperneck -6.58502 -15.5755 9.10859
head -2.09793 -7.97333 4.46227
rclavicle 1.86858e-014 -7.95139e-015
rhumerus -44.6719 -9.99039 -66.555
rradius 27.0161
rwrist 0.00337437
rhand 0.550726 -45.3473
rfingers 7.12502
rthumb 26.1178 -73.5712
lclavicle 1.86858e-014 -7.95139e-015
lhumerus -28.2908 -11.8287 87.0044
lradius 33.9391
lwrist 10.958
lhand -4.98523 -15.4357
lfingers 7.12502
lthumb 20.8076 13.4686
rfemur -4.32048 1.4803 21.9257
rtibia 0.991988
rfoot -22.0912 -34.4272
rtoes 23.9523
lfemur 1.01081 -0.982791 -7.72132
ltibia 18.3777
lfoot -15.9155 -5.67516
ltoes 19.3218
34
root 7.77798 18.0304 -13.8326 3.72954 0.15808 -3.11401
lowerback -1.14239 -3.63918 -0.410245
upperback 1.61658 -4.91468 2.9149
thorax 2.59272 -2.49496 3.05036
lowerneck 6.94068 -11.6399 -5.78403
upperneck -6.60587 -15.5392 9.1974
head -2.09417 -7.9569 4.5129
rclavicle 1.32937e-014 -1.63003e-014
rhumerus -44.6818 -9.95429 -66.9612
rradius 27.1861
rwrist 0.00594301
rhand 0.620487 -45.3452
rfingers 7.12502
rthumb 26.1846 -73.5592
lclavicle 1.32937e-014 -1.63003e-014
lhumerus -28.0226 -12.1435 86.8062
lradius 34.2099
lwrist 11.1414
lhand -5.11138 -15.5332
lfingers 7.12502
lthumb 20.6864 13.3843
rfemur -4.75841 1.65282 21.5955
rtibia 1.09789
rfoot -21.9816 -34.5816
rtoes 24.2531
lfemur 1.08809 -1.20201 -8.17865
ltibia 17.6382
lfoot -16.2155 -5.05091
ltoes 18.989
35
root 7.81578 18.036 -13.9175 3.77535 0.000363721 -2.92732
lowerback -0.884179 -3.55549 -0.767887
upperback 1.77731 -4.79069 2.67783
thorax 2.61486 -2.43882 3.02159
lowerneck 6.88298 -11.612 -5.87454
upperneck -6.58886 -15.507 9.26714
head -2.06765 -7.94115 4.54474
rclavicle 1.08835e-014 5.96354e-015
rhumerus -44.6637 -9.90235 -67.4174
rradius 27.4078
rwrist -0.0112809
rhand 0.663498 -45.3188
rfingers 7.12502
rthumb 26.2257 -73.5267
lclavicle 1.08835e-014 5.96354e-015
lhumerus -27.7046 -12.4475 86.5697
lradius 34.4466
lwrist 11.3121
lhand -5.2223 -15.6254
lfingers 7.12502
lthumb 20.5798 13.3037
rfemur -5.19659 1.8021 21.2176
rtibia 1.19906
rfoot -21.8014 -34.7168
rtoes 24.4602
lfemur 1.16267 -1.40014 -8.69152
ltibia 16.9248
lfoot -16.5355 -4.3911
ltoes 18.7903
36
root 7.85373 18.0417 -14.0036 3.81806 -0.200012 -2.71438
lowerback -0.618274 -3.46666 -1.15531
upperback 1.94859 -4.66068 2.42962
thorax 2.64431 -2.38059 2.99791
lowerneck 6.78822 -11.5819 -5.9545
upperneck -6.5517 -15.4713 9.31472
head -2.0306 -7.9224 4.56295
rclavicle 2.98177e-015 1.95803e-014
rhumerus -44.6236 -9.77086 -67.9356
rradius 27.6866
rwrist -0.0878045
rhand 0.695553 -45.2485
rfingers 7.12502
rthumb 26.2564 -73.4518
lclavicle 2.98177e-015 1.95803e-014
lhumerus -27.3676 -12.7193 86.3078
lradius 34.6499
lwrist 11.4852
lhand -5.35323 -15.7215
lfingers 7.12502
lthumb 20.454 13.2212
rfemur -5.64439 1.9519 20.8092
rtibia 1.30595
rfoot -21.5702 -34.8307
rtoes 24.6301
lfemur 1.24205 -1.5409 -9.22977
ltibia 16.2222
lfoot -16.8647 -3.70699
ltoes 18.5802
37
root 7.89151 18.0472 -14.0905 3.86179 -0.447188 -2.47901
lowerback -0.350247 -3.37019 -1.57433
upperback 2.12186 -4.52139 2.1721
thorax 2.67535 -2.31866 2.98223
lowerneck 6.68198 -11.5536 -6.02323
upperneck -6.50531 -15.4383 9.33574
head -1.99129 -7.90396 4.5689
rclavicle -2.80411e-014 3.2551e-014
rhumerus -44.5731 -9.54188 -68.5172
rradius 28.0194
rwrist -0.234528
rhand 0.725819 -45.1216
rfingers 7.12502
rthumb 26.2854 -73.3206
lclavicle -2.80411e-014 3.2551e-014
lhumerus -27.0377 -12.9646 86.0267
lradius 34.833
lwrist 11.6669
lhand -5.50934 -15.8072
lfingers 7.12502
lthumb 20.304 13.1515
rfemur -6.11177 2.08781 20.375
rtibia 1.42795
rfoot -21.2971 -34.8973
rtoes 24.8144
lfemur 1.33082 -1.61027 -9.7792
ltibia 15.513
lfoot -17.1808 -3.01469
ltoes 18.2904
38
root 7.92887 18.0521 -14.1779 3.90868 -0.747688 -2.22798
lowerback -0.0964466 -3.25725 -2.01257
upperback 2.2976 -4.36113 1.90139
thorax 2.71544 -2.24702 2.96293
lowerneck 6.58815 -11.5292 -6.09785
upperneck -6.45887 -15.4114 9.35546
head -1.9534 -7.88862 4.57657
rclavicle -1.46433e-014 3.23771e-014
rhumerus -44.5245 -9.23123 -69.1578
rradius 28.405
rwrist -0.442225
rhand 0.747775 -44.9563
rfingers 7.12502
rthumb 26.3064 -73.1522
lclavicle -1.46433e-014 3.23771e-014
lhumerus -26.7241 -13.2114 85.7255
lradius 35.0152
lwrist 11.8494
lhand -5.67367 -15.8888
lfingers 7.12502
lthumb 20.146 13.0866
rfemur -6.59987 2.18379 19.924
rtibia 1.56447
rfoot -20.9674 -34.8953
rtoes 25.0008
lfemur 1.4388 -1.6136 -10.3278
ltibia 14.7776
lfoot -17.4532 -2.35048
ltoes 18.0542
39
root 7.96553 18.056 -14.2654 3.96605 -1.10497 -1.96772
lowerback 0.126704 -3.12032 -2.45317
upperback 2.47701 -4.1694 1.60994
thorax 2.77228 -2.16009 2.92214
lowerneck 6.50491 -11.5069 -6.18201
upperneck -6.41554 -15.3871 9.40168
head -1.91535 -7.87556 4.59591
rclavicle -2.11333e-014 8.34896e-015
rhumerus -44.4871 -8.8719 -69.8529
rradius 28.8429
rwrist -0.689385
rhand 0.752867 -44.8152
rfingers 7.12502
rthumb 26.3113 -73.0103
lclavicle -2.11333e-014 8.34896e-015
lhumerus -26.4274 -13.4953 85.3948
lradius 35.2168
lwrist 12.0206
lhand -5.80606 -15.9569
lfingers 7.12502
lthumb 20.0188 13.0319
rfemur -7.11602 2.2098 19.4667
rtibia 1.71925
rfoot -20.5537 -34.8122
rtoes 25.1058
lfemur 1.56566 -1.56762 -10.8677
ltibia 14.0037
lfoot -17.6517 -1.75825
ltoes 18.0768
40
root 8.00118 18.0587 -14.353 4.04511 -1.51784 -1.71453
lowerback 0.322653 -2.95873 -2.87858
upperback 2.64713 -3.94509 1.30107
thorax 2.82947 -2.05662 2.85415
lowerneck 6.43366 -11.4837 -6.26584
upperneck -6.37754 -15.3607 9.47205
head -1.87953 -7.86258 4.62486
rclavicle -3.54831e-014 1.19271e-014
rhumerus -44.4743 -8.48508 -70.5854
rradius 29.3241
rwrist -0.941268
rhand 0.743698 -44.7303
rfingers 7.12502
rthumb 26.3025 -72.9268
lclavicle -3.54831e-014 1.19271e-014
lhumerus -26.1602 -13.8283 85.0338
lradius 35.4444
lwrist 12.1586
lhand -5.88492 -16.0062
lfingers 7.12502
lthumb 19.943 12.9905
rfemur -7.67457 2.16097 19.0253
rtibia 1.89823
rfoot -20.0574 -34.6471
rtoes 25.0529
lfemur 1.69335 -1.49758 -11.379
ltibia 13.1991
lfoot -17.7747 -1.24575
ltoes 18.3579
41
root 8.03568 18.0598 -14.4409 4.14754 -1.98347 -1.47576
lowerback 0.501975 -2.77696 -3.28481
upperback 2.79777 -3.69441 0.981633
thorax 2.87137 -1.93927 2.76446
lowerneck 6.39441 -11.4489 -6.3646
upperneck -6.34674 -15.3196 9.56923
head -1.84992 -7.84349 4.66895
rclavicle 2.81777e-014 -2.72335e-014
rhumerus -44.4924 -8.07187 -71.3383
rradius 29.8389
rwrist -1.17409
rhand 0.732277 -44.6905
rfingers 7.12502
rthumb 26.2916 -72.8886
lclavicle 2.81777e-014 -2.72335e-014
lhumerus -25.9286 -14.1979 84.6484
lradius 35.6834
lwrist 12.2553
lhand -5.91703 -16.0319
lfingers 7.12502
lthumb 19.9121 12.9679
rfemur -8.27295 2.05167 18.6099
rtibia 2.09724
rfoot -19.509 -34.4012
rtoes 24.8401
lfemur 1.80923 -1.41985 -11.8537
ltibia 12.3843
lfoot -17.8317 -0.776969
ltoes 18.6224
